<svg width="287" height="95" viewBox="0 0 287 95" fill="none" xmlns="http://www.w3.org/2000/svg">
<rect width="287" height="95" fill="black"/>
<path d="M53.0664 20.6915C50.1934 21.0713 49.5265 21.183 48.9108 21.3841C48.5774 21.4958 47.9361 21.6298 47.5257 21.6968C47.0896 21.7638 46.5509 21.9202 46.32 22.0319C46.0892 22.1436 45.0118 22.5458 43.9601 22.9479C35.7773 25.9415 29.0822 32.2638 26.2606 39.6362C23.0029 48.1702 24.3367 57.0394 29.98 64.4787C33.9047 69.6394 39.8302 73.5936 46.6535 75.6043C49.9882 76.6096 53.0407 77.0117 57.0423 77.0341C61.9161 77.0341 66.1743 76.2745 70.1246 74.6883L71.5354 74.1075L70.2529 74.0851C69.5603 74.0628 68.7394 74.0181 68.4572 73.9734C68.1751 73.9511 67.2003 73.8394 66.2769 73.7724C64.0452 73.5936 58.5558 72.2532 58.8636 71.9628C58.9406 71.9181 60.0179 72.0298 61.2748 72.2309C63.0448 72.499 64.6095 72.5436 68.0725 72.4543C70.535 72.3649 73.0232 72.2085 73.5875 72.0968C74.1519 71.9851 74.9984 71.8064 75.4857 71.7394C75.9731 71.6724 76.717 71.3596 77.1531 71.0468C78.3074 70.2202 82.4373 66.6458 82.4373 66.467C82.4373 66.3777 81.7704 66.5787 80.9752 66.9362C79.4617 67.5841 75.5884 68.7681 73.9723 69.0809C73.4849 69.1702 72.9719 69.2819 72.818 69.3043C70.3298 69.7958 65.3791 70.1309 63.0704 69.9521C56.6576 69.5277 50.1165 67.8075 45.8327 65.4394C45.0888 65.0372 44.3705 64.7021 44.2166 64.7021C44.0884 64.7021 43.9601 64.6351 43.9601 64.5234C43.9601 64.4341 43.4727 64.099 42.8571 63.7638C42.2671 63.4287 41.4719 62.8702 41.1384 62.5351C40.728 62.1553 40.7024 62.0436 41.0102 62.2894C41.2923 62.4904 42.4467 63.049 43.601 63.5628C48.8082 65.8192 55.7341 66.5564 61.9161 65.4841C64.4813 65.0372 65.5073 64.8362 66.8925 64.4341C69.0216 63.8532 71.4072 63.0266 73.6645 62.1107C74.6906 61.6862 75.5627 61.3511 75.6397 61.3511C75.691 61.3511 76.3579 61.1053 77.1018 60.8149C79.077 60.0553 84.079 58.3575 86.5415 57.6202C87.1828 57.4415 87.8241 57.1958 87.978 57.0841C88.1319 56.9724 88.491 56.0564 88.7476 55.0287C89.1323 53.599 89.2349 52.3032 89.2349 49.1755C89.2349 46.9638 89.158 44.6404 89.0554 44.0149C88.4397 40.3958 85.9772 35.3692 83.1812 32.0628C80.103 28.3989 75.2549 24.8692 71.2789 23.35C67.1234 21.7862 65.1995 21.2724 61.6596 20.8032C59.2997 20.4904 55.1185 20.4458 53.0664 20.6915ZM60.8644 27.1479C62.6857 27.55 66.7899 29.0245 66.7899 29.2702C66.7899 29.3149 66.0717 29.2032 65.1995 29.0245C62.737 28.5107 58.6327 28.5777 56.0163 29.1585C49.4239 30.6553 43.9858 35.3245 42.1388 41.133C41.3436 43.6351 41.3436 47.3436 42.1388 49.8234C43.6779 54.649 47.3717 58.5138 52.502 60.6809C53.6564 61.15 55.4263 61.7309 56.4011 61.9319C59.2484 62.5351 63.7887 62.4234 66.4308 61.6638C66.6873 61.5968 66.3795 61.8426 65.7125 62.2224C65.02 62.6021 64.353 62.9149 64.1991 62.9149C64.0708 62.9149 63.4552 63.116 62.8652 63.3394C61.7622 63.7862 61.3774 63.8532 58.0684 64.2777C51.8864 65.0819 44.7809 62.8702 40.215 58.7596C37.2907 56.1458 35.4438 53.1968 34.4434 49.6C33.7252 47.0085 33.8791 42.6968 34.7256 40.2394C37.2907 33.0681 44.3192 27.7064 52.4251 26.7904C53.0664 26.7234 53.6307 26.6341 53.682 26.5894C53.9642 26.366 59.0175 26.7458 60.8644 27.1479ZM65.6099 31.7277C74.511 34.3415 78.923 43.0543 75.1266 50.516C74.3827 51.9904 74.1006 52.0351 74.4597 50.6053C74.8445 49.1532 74.7932 46.7404 74.3314 45.1766C72.7923 39.9713 67.6107 36.2404 61.48 35.9277C54.7337 35.5926 49.1417 38.9883 46.8844 44.8192C46.3457 46.2266 46.2687 50.0468 46.7561 51.1638C46.9357 51.5213 46.987 51.8564 46.9357 51.9011C46.7305 52.0798 45.8583 50.3819 45.2427 48.7287C44.5757 46.8075 44.4988 43.367 45.1144 41.3787C46.32 37.4021 49.9625 33.7607 54.3746 32.0628C57.5041 30.8341 62.0957 30.7224 65.6099 31.7277Z" fill="white"/>
<path d="M102.784 33.9091L109.815 56.0114H110.085L117.131 33.9091H123.949L113.92 63H105.994L95.9517 33.9091H102.784ZM133.601 33.9091V63H127.45V33.9091H133.601ZM143.917 33.9091L150.948 56.0114H151.218L158.263 33.9091H165.082L155.053 63H147.127L137.085 33.9091H143.917ZM169.73 63H163.139L173.182 33.9091H181.108L191.136 63H184.545L177.259 40.5568H177.031L169.73 63ZM169.318 51.5653H184.886V56.3665H169.318V51.5653Z" fill="#EC4899"/>
<path d="M185.528 63V33.9091H197.176C199.316 33.9091 201.101 34.2263 202.531 34.8608C203.961 35.4953 205.036 36.3759 205.756 37.5028C206.475 38.6203 206.835 39.9081 206.835 41.3665C206.835 42.5028 206.608 43.5019 206.153 44.3636C205.699 45.2159 205.074 45.9167 204.278 46.4659C203.492 47.0057 202.593 47.3892 201.58 47.6165V47.9006C202.688 47.9479 203.724 48.2604 204.69 48.8381C205.666 49.4157 206.456 50.2254 207.062 51.267C207.669 52.2992 207.972 53.5303 207.972 54.9602C207.972 56.5038 207.588 57.8816 206.821 59.0938C206.063 60.2964 204.941 61.2481 203.455 61.9489C201.968 62.6496 200.135 63 197.957 63H185.528ZM191.679 57.9716H196.693C198.407 57.9716 199.657 57.6449 200.443 56.9915C201.229 56.3286 201.622 55.4479 201.622 54.3494C201.622 53.5445 201.428 52.8343 201.04 52.2188C200.652 51.6032 200.098 51.1203 199.378 50.7699C198.668 50.4195 197.82 50.2443 196.835 50.2443H191.679V57.9716ZM191.679 46.0824H196.239C197.081 46.0824 197.83 45.9356 198.483 45.642C199.146 45.339 199.667 44.9129 200.045 44.3636C200.434 43.8144 200.628 43.1562 200.628 42.3892C200.628 41.3381 200.254 40.4905 199.506 39.8466C198.767 39.2027 197.716 38.8807 196.352 38.8807H191.679V46.0824ZM211.974 63V33.9091H231.576V38.9801H218.124V45.9119H230.567V50.983H218.124V57.929H231.633V63H211.974ZM236.466 33.9091H244.051L252.062 53.4545H252.403L260.415 33.9091H268V63H262.034V44.0653H261.793L254.264 62.858H250.202L242.673 43.9943H242.432V63H236.466V33.9091Z" fill="white"/>
</svg>
