<svg width="287" height="95" viewBox="0 0 287 95" fill="none" xmlns="http://www.w3.org/2000/svg">
<rect width="287" height="95" fill="black"/>
<path d="M53.0664 20.6915C50.1934 21.0713 49.5265 21.183 48.9108 21.3841C48.5774 21.4958 47.9361 21.6298 47.5257 21.6968C47.0896 21.7638 46.5509 21.9202 46.32 22.0319C46.0892 22.1436 45.0118 22.5458 43.9601 22.9479C35.7773 25.9415 29.0822 32.2638 26.2606 39.6362C23.0029 48.1702 24.3367 57.0394 29.98 64.4787C33.9047 69.6394 39.8302 73.5936 46.6535 75.6043C49.9882 76.6096 53.0407 77.0117 57.0423 77.0341C61.9161 77.0341 66.1743 76.2745 70.1246 74.6883L71.5354 74.1075L70.2529 74.0851C69.5603 74.0628 68.7394 74.0181 68.4572 73.9734C68.1751 73.9511 67.2003 73.8394 66.2769 73.7724C64.0452 73.5936 58.5558 72.2532 58.8636 71.9628C58.9406 71.9181 60.0179 72.0298 61.2748 72.2309C63.0448 72.499 64.6095 72.5436 68.0725 72.4543C70.535 72.3649 73.0232 72.2085 73.5875 72.0968C74.1519 71.9851 74.9984 71.8064 75.4857 71.7394C75.9731 71.6724 76.717 71.3596 77.1531 71.0468C78.3074 70.2202 82.4373 66.6458 82.4373 66.467C82.4373 66.3777 81.7704 66.5787 80.9752 66.9362C79.4617 67.5841 75.5884 68.7681 73.9723 69.0809C73.4849 69.1702 72.9719 69.2819 72.818 69.3043C70.3298 69.7958 65.3791 70.1309 63.0704 69.9521C56.6576 69.5277 50.1165 67.8075 45.8327 65.4394C45.0888 65.0372 44.3705 64.7021 44.2166 64.7021C44.0884 64.7021 43.9601 64.6351 43.9601 64.5234C43.9601 64.4341 43.4727 64.099 42.8571 63.7638C42.2671 63.4287 41.4719 62.8702 41.1384 62.5351C40.728 62.1553 40.7024 62.0436 41.0102 62.2894C41.2923 62.4904 42.4467 63.049 43.601 63.5628C48.8082 65.8192 55.7341 66.5564 61.9161 65.4841C64.4813 65.0372 65.5073 64.8362 66.8925 64.4341C69.0216 63.8532 71.4072 63.0266 73.6645 62.1107C74.6906 61.6862 75.5627 61.3511 75.6397 61.3511C75.691 61.3511 76.3579 61.1053 77.1018 60.8149C79.077 60.0553 84.079 58.3575 86.5415 57.6202C87.1828 57.4415 87.8241 57.1958 87.978 57.0841C88.1319 56.9724 88.491 56.0564 88.7476 55.0287C89.1323 53.599 89.2349 52.3032 89.2349 49.1755C89.2349 46.9638 89.158 44.6404 89.0554 44.0149C88.4397 40.3958 85.9772 35.3692 83.1812 32.0628C80.103 28.3989 75.2549 24.8692 71.2789 23.35C67.1234 21.7862 65.1995 21.2724 61.6596 20.8032C59.2997 20.4904 55.1185 20.4458 53.0664 20.6915ZM60.8644 27.1479C62.6857 27.55 66.7899 29.0245 66.7899 29.2702C66.7899 29.3149 66.0717 29.2032 65.1995 29.0245C62.737 28.5107 58.6327 28.5777 56.0163 29.1585C49.4239 30.6553 43.9858 35.3245 42.1388 41.133C41.3436 43.6351 41.3436 47.3436 42.1388 49.8234C43.6779 54.649 47.3717 58.5138 52.502 60.6809C53.6564 61.15 55.4263 61.7309 56.4011 61.9319C59.2484 62.5351 63.7887 62.4234 66.4308 61.6638C66.6873 61.5968 66.3795 61.8426 65.7125 62.2224C65.02 62.6021 64.353 62.9149 64.1991 62.9149C64.0708 62.9149 63.4552 63.116 62.8652 63.3394C61.7622 63.7862 61.3774 63.8532 58.0684 64.2777C51.8864 65.0819 44.7809 62.8702 40.215 58.7596C37.2907 56.1458 35.4438 53.1968 34.4434 49.6C33.7252 47.0085 33.8791 42.6968 34.7256 40.2394C37.2907 33.0681 44.3192 27.7064 52.4251 26.7904C53.0664 26.7234 53.6307 26.6341 53.682 26.5894C53.9642 26.366 59.0175 26.7458 60.8644 27.1479ZM65.6099 31.7277C74.511 34.3415 78.923 43.0543 75.1266 50.516C74.3827 51.9904 74.1006 52.0351 74.4597 50.6053C74.8445 49.1532 74.7932 46.7404 74.3314 45.1766C72.7923 39.9713 67.6107 36.2404 61.48 35.9277C54.7337 35.5926 49.1417 38.9883 46.8844 44.8192C46.3457 46.2266 46.2687 50.0468 46.7561 51.1638C46.9357 51.5213 46.987 51.8564 46.9357 51.9011C46.7305 52.0798 45.8583 50.3819 45.2427 48.7287C44.5757 46.8075 44.4988 43.367 45.1144 41.3787C46.32 37.4021 49.9625 33.7607 54.3746 32.0628C57.5041 30.8341 62.0957 30.7224 65.6099 31.7277Z" fill="white"/>
<path d="M102.784 25.9091L109.815 48.0114H110.085L117.131 25.9091H123.949L113.92 55H105.994L95.9517 25.9091H102.784ZM133.601 25.9091V55H127.45V25.9091H133.601ZM143.917 25.9091L150.948 48.0114H151.218L158.263 25.9091H165.082L155.053 55H147.127L137.085 25.9091H143.917ZM169.73 55H163.139L173.182 25.9091H181.108L191.136 55H184.545L177.259 32.5568H177.031L169.73 55ZM169.318 43.5653H184.886V48.3665H169.318V43.5653Z" fill="#EC4899"/>
<path d="M185.528 55V25.9091H197.176C199.316 25.9091 201.101 26.2263 202.531 26.8608C203.961 27.4953 205.036 28.3759 205.756 29.5028C206.475 30.6203 206.835 31.9081 206.835 33.3665C206.835 34.5028 206.608 35.5019 206.153 36.3636C205.699 37.2159 205.074 37.9167 204.278 38.4659C203.492 39.0057 202.593 39.3892 201.58 39.6165V39.9006C202.688 39.9479 203.724 40.2604 204.69 40.8381C205.666 41.4157 206.456 42.2254 207.062 43.267C207.669 44.2992 207.972 45.5303 207.972 46.9602C207.972 48.5038 207.588 49.8816 206.821 51.0938C206.063 52.2964 204.941 53.2481 203.455 53.9489C201.968 54.6496 200.135 55 197.957 55H185.528ZM191.679 49.9716H196.693C198.407 49.9716 199.657 49.6449 200.443 48.9915C201.229 48.3286 201.622 47.4479 201.622 46.3494C201.622 45.5445 201.428 44.8343 201.04 44.2188C200.652 43.6032 200.098 43.1203 199.378 42.7699C198.668 42.4195 197.82 42.2443 196.835 42.2443H191.679V49.9716ZM191.679 38.0824H196.239C197.081 38.0824 197.83 37.9356 198.483 37.642C199.146 37.339 199.667 36.9129 200.045 36.3636C200.434 35.8144 200.628 35.1562 200.628 34.3892C200.628 33.3381 200.254 32.4905 199.506 31.8466C198.767 31.2027 197.716 30.8807 196.352 30.8807H191.679V38.0824ZM211.974 55V25.9091H231.576V30.9801H218.124V37.9119H230.567V42.983H218.124V49.929H231.633V55H211.974ZM236.466 25.9091H244.051L252.062 45.4545H252.403L260.415 25.9091H268V55H262.034V36.0653H261.793L254.264 54.858H250.202L242.673 35.9943H242.432V55H236.466V25.9091Z" fill="white"/>
<path d="M97.3352 67.2727L99.4446 73.9034H99.5256L101.639 67.2727H103.685L100.676 76H98.2983L95.2855 67.2727H97.3352ZM106.58 67.2727V76H104.735V67.2727H106.58ZM109.675 67.2727L111.784 73.9034H111.865L113.979 67.2727H116.025L113.016 76H110.638L107.625 67.2727H109.675ZM117.419 76H115.442L118.455 67.2727H120.832L123.841 76H121.864L119.678 69.267H119.609L117.419 76ZM117.295 72.5696H121.966V74.0099H117.295V72.5696ZM127.669 76V67.2727H131.163C131.805 67.2727 132.341 67.3679 132.77 67.5582C133.199 67.7486 133.521 68.0128 133.737 68.3509C133.953 68.6861 134.061 69.0724 134.061 69.5099C134.061 69.8509 133.993 70.1506 133.856 70.4091C133.72 70.6648 133.532 70.875 133.294 71.0398C133.058 71.2017 132.788 71.3168 132.484 71.3849V71.4702C132.816 71.4844 133.127 71.5781 133.417 71.7514C133.71 71.9247 133.947 72.1676 134.129 72.4801C134.311 72.7898 134.402 73.1591 134.402 73.5881C134.402 74.0511 134.287 74.4645 134.056 74.8281C133.829 75.1889 133.493 75.4744 133.047 75.6847C132.6 75.8949 132.051 76 131.397 76H127.669ZM129.514 74.4915H131.018C131.532 74.4915 131.907 74.3935 132.143 74.1974C132.379 73.9986 132.497 73.7344 132.497 73.4048C132.497 73.1634 132.439 72.9503 132.322 72.7656C132.206 72.581 132.039 72.4361 131.824 72.331C131.61 72.2259 131.356 72.1733 131.061 72.1733H129.514V74.4915ZM129.514 70.9247H130.882C131.135 70.9247 131.359 70.8807 131.555 70.7926C131.754 70.7017 131.91 70.5739 132.024 70.4091C132.14 70.2443 132.199 70.0469 132.199 69.8168C132.199 69.5014 132.086 69.2472 131.862 69.054C131.64 68.8608 131.325 68.7642 130.916 68.7642H129.514V70.9247ZM135.602 76V67.2727H141.483V68.794H137.447V70.8736H141.18V72.3949H137.447V74.4787H141.5V76H135.602ZM142.95 67.2727H145.225L147.629 73.1364H147.731L150.135 67.2727H152.41V76H150.62V70.3196H150.548L148.289 75.9574H147.071L144.812 70.2983H144.74V76H142.95V67.2727ZM155.869 74.8068L155.822 75.2756C155.786 75.6506 155.714 76.0241 155.609 76.3963C155.507 76.7713 155.399 77.1108 155.286 77.4148C155.175 77.7188 155.085 77.9574 155.017 78.1307H153.841C153.884 77.9631 153.942 77.7287 154.016 77.4276C154.089 77.1293 154.159 76.794 154.224 76.4219C154.29 76.0497 154.331 75.6705 154.348 75.2841L154.369 74.8068H155.869ZM159.93 67.2727H162.206L164.609 73.1364H164.712L167.115 67.2727H169.391V76H167.601V70.3196H167.528L165.27 75.9574H164.051L161.793 70.2983H161.72V76H159.93V67.2727ZM178.931 71.6364C178.931 72.5881 178.75 73.3977 178.39 74.0653C178.032 74.733 177.543 75.2429 176.924 75.5952C176.307 75.9446 175.614 76.1193 174.844 76.1193C174.069 76.1193 173.373 75.9432 172.756 75.5909C172.14 75.2386 171.652 74.7287 171.294 74.0611C170.936 73.3935 170.757 72.5852 170.757 71.6364C170.757 70.6847 170.936 69.875 171.294 69.2074C171.652 68.5398 172.14 68.0312 172.756 67.6818C173.373 67.3295 174.069 67.1534 174.844 67.1534C175.614 67.1534 176.307 67.3295 176.924 67.6818C177.543 68.0312 178.032 68.5398 178.39 69.2074C178.75 69.875 178.931 70.6847 178.931 71.6364ZM177.06 71.6364C177.06 71.0199 176.968 70.5 176.783 70.0767C176.601 69.6534 176.344 69.3324 176.012 69.1136C175.679 68.8949 175.29 68.7855 174.844 68.7855C174.398 68.7855 174.009 68.8949 173.676 69.1136C173.344 69.3324 173.086 69.6534 172.901 70.0767C172.719 70.5 172.628 71.0199 172.628 71.6364C172.628 72.2528 172.719 72.7727 172.901 73.196C173.086 73.6193 173.344 73.9403 173.676 74.1591C174.009 74.3778 174.398 74.4872 174.844 74.4872C175.29 74.4872 175.679 74.3778 176.012 74.1591C176.344 73.9403 176.601 73.6193 176.783 73.196C176.968 72.7727 177.06 72.2528 177.06 71.6364ZM181.382 67.2727L183.491 73.9034H183.572L185.686 67.2727H187.732L184.723 76H182.345L179.332 67.2727H181.382ZM189.126 76H187.149L190.162 67.2727H192.539L195.548 76H193.571L191.385 69.267H191.316L189.126 76ZM189.002 72.5696H193.673V74.0099H189.002V72.5696ZM200.642 70.9162V72.3565H196.662V70.9162H200.642ZM206.958 69.7827C206.924 69.4389 206.777 69.1719 206.519 68.9815C206.26 68.7912 205.909 68.696 205.466 68.696C205.165 68.696 204.911 68.7386 204.703 68.8239C204.496 68.9062 204.337 69.0213 204.226 69.169C204.118 69.3168 204.064 69.4844 204.064 69.6719C204.059 69.8281 204.091 69.9645 204.162 70.081C204.236 70.1974 204.337 70.2983 204.465 70.3835C204.593 70.4659 204.74 70.5384 204.908 70.6009C205.076 70.6605 205.255 70.7116 205.445 70.7543L206.229 70.9418C206.61 71.027 206.959 71.1406 207.277 71.2827C207.596 71.4247 207.871 71.5994 208.104 71.8068C208.337 72.0142 208.517 72.2585 208.645 72.5398C208.776 72.821 208.843 73.1435 208.846 73.5071C208.843 74.0412 208.706 74.5043 208.436 74.8963C208.169 75.2855 207.783 75.5881 207.277 75.804C206.775 76.017 206.168 76.1236 205.458 76.1236C204.753 76.1236 204.14 76.0156 203.617 75.7997C203.097 75.5838 202.691 75.2642 202.398 74.8409C202.108 74.4148 201.956 73.8878 201.942 73.2599H203.728C203.748 73.5526 203.831 73.7969 203.979 73.9929C204.13 74.1861 204.33 74.3324 204.58 74.4318C204.833 74.5284 205.118 74.5767 205.436 74.5767C205.749 74.5767 206.02 74.5312 206.25 74.4403C206.483 74.3494 206.664 74.223 206.792 74.0611C206.919 73.8991 206.983 73.7131 206.983 73.5028C206.983 73.3068 206.925 73.142 206.809 73.0085C206.695 72.875 206.527 72.7614 206.306 72.6676C206.087 72.5739 205.819 72.4886 205.5 72.4119L204.55 72.1733C203.814 71.9943 203.233 71.7145 202.807 71.3338C202.381 70.9531 202.169 70.4403 202.172 69.7955C202.169 69.267 202.31 68.8054 202.594 68.4105C202.881 68.0156 203.275 67.7074 203.775 67.4858C204.275 67.2642 204.843 67.1534 205.479 67.1534C206.127 67.1534 206.692 67.2642 207.175 67.4858C207.661 67.7074 208.039 68.0156 208.309 68.4105C208.578 68.8054 208.718 69.2628 208.726 69.7827H206.958ZM210.087 76V67.2727H215.967V68.794H211.932V70.8736H215.665V72.3949H211.932V74.4787H215.984V76H210.087ZM220.212 67.2727H222.487L224.891 73.1364H224.993L227.396 67.2727H229.672V76H227.882V70.3196H227.81L225.551 75.9574H224.332L222.074 70.2983H222.001V76H220.212V67.2727ZM231.192 76V67.2727H237.073V68.794H233.037V70.8736H236.77V72.3949H233.037V74.4787H237.09V76H231.192ZM238.54 76V67.2727H240.385V74.4787H244.126V76H238.54ZM245.348 76V67.2727H247.194V70.8736H250.939V67.2727H252.78V76H250.939V72.3949H247.194V76H245.348ZM262.321 71.6364C262.321 72.5881 262.141 73.3977 261.78 74.0653C261.422 74.733 260.934 75.2429 260.314 75.5952C259.698 75.9446 259.005 76.1193 258.235 76.1193C257.459 76.1193 256.763 75.9432 256.147 75.5909C255.53 75.2386 255.043 74.7287 254.685 74.0611C254.327 73.3935 254.148 72.5852 254.148 71.6364C254.148 70.6847 254.327 69.875 254.685 69.2074C255.043 68.5398 255.53 68.0312 256.147 67.6818C256.763 67.3295 257.459 67.1534 258.235 67.1534C259.005 67.1534 259.698 67.3295 260.314 67.6818C260.934 68.0312 261.422 68.5398 261.78 69.2074C262.141 69.875 262.321 70.6847 262.321 71.6364ZM260.451 71.6364C260.451 71.0199 260.358 70.5 260.174 70.0767C259.992 69.6534 259.735 69.3324 259.402 69.1136C259.07 68.8949 258.681 68.7855 258.235 68.7855C257.789 68.7855 257.4 68.8949 257.067 69.1136C256.735 69.3324 256.476 69.6534 256.292 70.0767C256.11 70.5 256.019 71.0199 256.019 71.6364C256.019 72.2528 256.11 72.7727 256.292 73.196C256.476 73.6193 256.735 73.9403 257.067 74.1591C257.4 74.3778 257.789 74.4872 258.235 74.4872C258.681 74.4872 259.07 74.3778 259.402 74.1591C259.735 73.9403 259.992 73.6193 260.174 73.196C260.358 72.7727 260.451 72.2528 260.451 71.6364ZM263.688 76V67.2727H267.131C267.79 67.2727 268.353 67.3906 268.819 67.6264C269.288 67.8594 269.644 68.1903 269.888 68.6193C270.136 69.0455 270.259 69.5469 270.259 70.1236C270.259 70.7031 270.134 71.2017 269.884 71.6193C269.634 72.0341 269.272 72.3523 268.798 72.5739C268.326 72.7955 267.755 72.9062 267.085 72.9062H264.779V71.4233H266.786C267.138 71.4233 267.431 71.375 267.664 71.2784C267.897 71.1818 268.07 71.0369 268.184 70.8438C268.3 70.6506 268.359 70.4105 268.359 70.1236C268.359 69.8338 268.3 69.5895 268.184 69.3906C268.07 69.1918 267.896 69.0412 267.66 68.9389C267.427 68.8338 267.133 68.7812 266.778 68.7812H265.533V76H263.688ZM268.401 72.0284L270.57 76H268.533L266.411 72.0284H268.401Z" fill="white"/>
</svg>
